<svg width="116" height="33" viewBox="0 0 116 33" fill="none" xmlns="http://www.w3.org/2000/svg">
<path fill-rule="evenodd" clip-rule="evenodd" d="M20.7479 7.79789C21.4731 8.62758 21.3921 9.89129 20.5669 10.6204L16.1757 14.5006L20.2711 15.6039C20.9797 15.7948 21.5263 16.3623 21.6932 17.0806C21.8602 17.7988 21.6204 18.5511 21.0694 19.038L13.8863 25.3851C13.0611 26.1142 11.8042 26.0327 11.079 25.203C10.3538 24.3733 10.4349 23.1096 11.2601 22.3805L15.6513 18.5004L11.5558 17.397C10.8472 17.2061 10.3006 16.6386 10.1337 15.9204C9.96674 15.2021 10.2065 14.4498 10.7576 13.9629L17.9406 7.61585C18.7658 6.88669 20.0227 6.96819 20.7479 7.79789Z" fill="#205BF1"/>
<path d="M45.4553 25.752L43.856 23.904C43.1319 24.4 42.3521 24.788 41.5167 25.068C40.6812 25.348 39.8219 25.488 38.9387 25.488C37.8009 25.488 36.7665 25.264 35.8356 24.816C34.9047 24.3601 34.1169 23.736 33.4725 22.944C32.828 22.144 32.3665 21.216 32.088 20.16C31.8095 19.104 31.7538 17.976 31.9209 16.776C32.088 15.576 32.458 14.452 33.0309 13.404C33.6037 12.348 34.3238 11.42 35.1911 10.62C36.0584 9.82005 37.0211 9.19605 38.0794 8.74805C39.1376 8.29205 40.2357 8.06405 41.3735 8.06405C42.5113 8.06405 43.5417 8.29205 44.4647 8.74805C45.3956 9.19605 46.1833 9.82005 46.8278 10.62C47.4723 11.42 47.9338 12.348 48.2123 13.404C48.4908 14.452 48.5465 15.576 48.3794 16.776C48.2521 17.712 47.9935 18.604 47.6036 19.452C47.2217 20.292 46.7443 21.068 46.1714 21.78L47.8065 23.688L45.4553 25.752ZM39.3445 22.56C39.806 22.56 40.2675 22.492 40.729 22.356C41.1984 22.212 41.636 22.012 42.0418 21.756L40.7409 20.232L43.0921 18.156L44.3095 19.596C44.6198 19.18 44.8744 18.732 45.0733 18.252C45.2723 17.772 45.4036 17.28 45.4672 16.776C45.5786 15.976 45.5428 15.228 45.3598 14.532C45.1847 13.836 44.8903 13.224 44.4766 12.696C44.0628 12.16 43.5536 11.744 42.9489 11.448C42.3521 11.144 41.6917 10.992 40.9677 10.992C40.2277 10.992 39.5156 11.144 38.8313 11.448C38.147 11.752 37.5224 12.172 36.9575 12.708C36.4005 13.236 35.9311 13.848 35.5492 14.544C35.1752 15.24 34.9365 15.984 34.8331 16.776C34.7217 17.568 34.7535 18.316 34.9285 19.02C35.1115 19.716 35.4099 20.332 35.8237 20.868C36.2374 21.396 36.7427 21.812 37.3394 22.116C37.9441 22.412 38.6125 22.56 39.3445 22.56Z" fill="url(#paint0_linear_38_697)"/>
<path d="M49.7521 20.808L50.8024 13.248H53.7145L52.7597 20.04C52.704 20.512 52.7637 20.944 52.9387 21.336C53.1138 21.72 53.3764 22.028 53.7265 22.26C54.0845 22.484 54.4943 22.596 54.9558 22.596C55.4252 22.596 55.8668 22.484 56.2806 22.26C56.7023 22.028 57.0524 21.72 57.3309 21.336C57.6173 20.944 57.7923 20.512 57.856 20.04L58.8108 13.248H61.723L60.064 25.248H57.1518L57.2831 24.156C56.8137 24.588 56.2766 24.932 55.6719 25.188C55.0751 25.436 54.4545 25.56 53.81 25.56C52.9427 25.56 52.1789 25.348 51.5185 24.924C50.866 24.4921 50.3767 23.92 50.0505 23.208C49.7322 22.488 49.6327 21.688 49.7521 20.808Z" fill="url(#paint1_linear_38_697)"/>
<path d="M64.124 13.248H67.0361L65.3652 25.248H62.4531L64.124 13.248ZM65.8187 11.7C65.3891 11.7 65.0469 11.56 64.7923 11.28C64.5377 10.992 64.4422 10.632 64.5059 10.2C64.5695 9.77605 64.7645 9.42005 65.0907 9.13205C65.4249 8.84405 65.8068 8.70005 66.2365 8.70005C66.6502 8.70005 66.9804 8.84405 67.2271 9.13205C67.4817 9.42005 67.5812 9.77605 67.5255 10.2C67.4618 10.632 67.2669 10.992 66.9406 11.28C66.6224 11.56 66.2484 11.7 65.8187 11.7Z" fill="url(#paint2_linear_38_697)"/>
<path d="M75.8673 21.636L78.2782 23.064C77.6258 23.816 76.854 24.42 75.9628 24.876C75.0717 25.332 74.1367 25.56 73.1581 25.56C72.06 25.56 71.0973 25.276 70.2698 24.708C69.4502 24.14 68.8376 23.38 68.4318 22.428C68.0339 21.468 67.9146 20.408 68.0737 19.248C68.1931 18.368 68.4596 17.548 68.8734 16.788C69.2951 16.02 69.8202 15.348 70.4488 14.772C71.0774 14.188 71.7736 13.732 72.5374 13.404C73.3092 13.076 74.1049 12.912 74.9245 12.912C75.9031 12.912 76.7744 13.14 77.5382 13.596C78.31 14.052 78.9148 14.664 79.3524 15.432L76.5238 16.848C76.2851 16.528 75.9907 16.28 75.6406 16.104C75.2905 15.928 74.9165 15.84 74.5187 15.84C73.9378 15.84 73.3968 16 72.8955 16.32C72.3942 16.632 71.9725 17.048 71.6304 17.568C71.2882 18.08 71.0734 18.64 70.9859 19.248C70.9063 19.848 70.962 20.408 71.153 20.928C71.3519 21.44 71.6582 21.852 72.072 22.164C72.4937 22.476 72.991 22.632 73.5639 22.632C73.9776 22.632 74.3834 22.544 74.7812 22.368C75.187 22.184 75.5491 21.94 75.8673 21.636Z" fill="url(#paint3_linear_38_697)"/>
<path d="M90.4195 25.248H87.0658L85.001 20.532L83.0437 22.536L82.6737 25.248H79.7615L82.2679 7.24805H85.18L83.6762 17.988L88.2951 13.248H92.1024L87.3284 18.156L90.4195 25.248Z" fill="url(#paint4_linear_38_697)"/>
<path d="M93.8218 13.248H96.7339L95.063 25.248H92.1509L93.8218 13.248ZM95.5166 11.7C95.0869 11.7 94.7448 11.56 94.4902 11.28C94.2355 10.992 94.1401 10.632 94.2037 10.2C94.2674 9.77605 94.4623 9.42005 94.7885 9.13205C95.1227 8.84405 95.5046 8.70005 95.9343 8.70005C96.348 8.70005 96.6783 8.84405 96.9249 9.13205C97.1795 9.42005 97.279 9.77605 97.2233 10.2C97.1596 10.632 96.9647 10.992 96.6385 11.28C96.3202 11.56 95.9462 11.7 95.5166 11.7Z" fill="url(#paint5_linear_38_697)"/>
<path d="M105.594 16.176H103.279L102.014 25.248H99.1016L100.367 16.176H98.6003L99.0061 13.248H100.772L101.298 9.48005H104.21L103.685 13.248H106L105.594 16.176Z" fill="url(#paint6_linear_38_697)"/>
<defs>
<linearGradient id="paint0_linear_38_697" x1="30.9542" y1="19.248" x2="106.543" y2="19.248" gradientUnits="userSpaceOnUse">
<stop stop-color="#205BF1"/>
<stop offset="0.708333" stop-color="white"/>
</linearGradient>
<linearGradient id="paint1_linear_38_697" x1="30.9542" y1="19.248" x2="106.543" y2="19.248" gradientUnits="userSpaceOnUse">
<stop stop-color="#205BF1"/>
<stop offset="0.708333" stop-color="white"/>
</linearGradient>
<linearGradient id="paint2_linear_38_697" x1="30.9542" y1="19.248" x2="106.543" y2="19.248" gradientUnits="userSpaceOnUse">
<stop stop-color="#205BF1"/>
<stop offset="0.708333" stop-color="white"/>
</linearGradient>
<linearGradient id="paint3_linear_38_697" x1="30.9542" y1="19.248" x2="106.543" y2="19.248" gradientUnits="userSpaceOnUse">
<stop stop-color="#205BF1"/>
<stop offset="0.708333" stop-color="white"/>
</linearGradient>
<linearGradient id="paint4_linear_38_697" x1="30.9542" y1="19.248" x2="106.543" y2="19.248" gradientUnits="userSpaceOnUse">
<stop stop-color="#205BF1"/>
<stop offset="0.708333" stop-color="white"/>
</linearGradient>
<linearGradient id="paint5_linear_38_697" x1="30.9542" y1="19.248" x2="106.543" y2="19.248" gradientUnits="userSpaceOnUse">
<stop stop-color="#205BF1"/>
<stop offset="0.708333" stop-color="white"/>
</linearGradient>
<linearGradient id="paint6_linear_38_697" x1="30.9542" y1="19.248" x2="106.543" y2="19.248" gradientUnits="userSpaceOnUse">
<stop stop-color="#205BF1"/>
<stop offset="0.708333" stop-color="white"/>
</linearGradient>
</defs>
</svg>
